<?xml version="1.0" encoding="utf-8"?>
<svg version="1.1" xmlns:xlink="http://www.w3.org/1999/xlink" width="24px" height="24px" xmlns="http://www.w3.org/2000/svg">
  <g transform="matrix(1 0 0 1 -56 -96 )">
    <path d="M 68 96  C 74.72 96  80 101.28  80 108  C 80 114.72  74.72 120  68 120  C 61.28 120  56 114.72  56 108  C 56 101.28  61.28 96  68 96  Z " fill-rule="nonzero" fill="#ffffff" stroke="none" />
    <path d="M 68 96.5  C 74.44 96.5  79.5 101.56  79.5 108  C 79.5 114.44  74.44 119.5  68 119.5  C 61.56 119.5  56.5 114.44  56.5 108  C 56.5 101.56  61.56 96.5  68 96.5  Z " stroke-width="1" stroke="#1890ff" fill="none" />
  </g>
</svg>