<?xml version="1.0" encoding="utf-8"?>
<svg version="1.1" xmlns:xlink="http://www.w3.org/1999/xlink" width="170px" height="170px" xmlns="http://www.w3.org/2000/svg">
  <defs>
    <linearGradient gradientUnits="userSpaceOnUse" x1="1065" y1="203.000000000001" x2="1119" y2="139.888888888889" id="LinearGradient21">
      <stop id="Stop22" stop-color="#04d919" offset="0" />
      <stop id="Stop23" stop-color="#d99104" offset="0.42" />
      <stop id="Stop24" stop-color="#d9001b" offset="1" />
    </linearGradient>
  </defs>
  <g transform="matrix(1 0 0 1 -980 -118 )">
    <path d="M 980.500191972121 203.180120103223  C 980.500063990844 203.120080201398  980.5 203.06004013289  980.5 203  C 980.5 156.331938639298  1018.3319386393 118.5  1065 118.5  C 1111.13820614048 118.5  1148.71329299176 155.499099915614  1149.48791742235 201.569292133567  L 1064.99597564607 202.500016195687  L 980.500191972121 203.180120103223  Z " fill-rule="nonzero" fill="url(#LinearGradient21)" stroke="none" />
    <path d="M 980.500191972121 203.180120103223  C 980.500063990844 203.120080201398  980.5 203.06004013289  980.5 203  C 980.5 156.331938639298  1018.3319386393 118.5  1065 118.5  C 1111.13820614048 118.5  1148.71329299176 155.499099915614  1149.48791742235 201.569292133567  L 1064.99597564607 202.500016195687  L 980.500191972121 203.180120103223  Z " stroke-width="1" stroke="#1890ff" fill="none" />
  </g>
</svg>