<?xml version="1.0" encoding="utf-8"?>
<svg version="1.1" xmlns:xlink="http://www.w3.org/1999/xlink" width="50px" height="38px" xmlns="http://www.w3.org/2000/svg">
  <g transform="matrix(1 0 0 1 -998 -273 )">
    <path d="M 23.81591796875 16.216796875  C 21.98486328125 18.072265625  19.775390625 19  17.1875 19  C 14.599609375 19  12.39013671875 18.072265625  10.55908203125 16.216796875  C 8.72802734375 14.361328125  7.8125 12.1223958333333  7.8125 9.5  C 7.8125 6.87760416666667  8.72802734375 4.638671875  10.55908203125 2.783203125  C 12.39013671875 0.927734375  14.599609375 0  17.1875 0  C 19.775390625 0  21.98486328125 0.927734375  23.81591796875 2.783203125  C 25.64697265625 4.638671875  26.5625 6.87760416666667  26.5625 9.5  C 26.5625 12.1223958333333  25.64697265625 14.361328125  23.81591796875 16.216796875  Z M 40.625 13.4583333333333  L 40.625 22.1666666666667  L 49.21875 22.1666666666667  C 49.4303385416667 22.1666666666667  49.6134440104167 22.2450086805556  49.76806640625 22.4016927083333  C 49.9226888020833 22.5583767361111  50 22.7439236111111  50 22.9583333333333  L 50 27.7083333333333  C 50 27.9227430555556  49.9226888020833 28.1082899305556  49.76806640625 28.2649739583333  C 49.6134440104167 28.4216579861111  49.4303385416667 28.5  49.21875 28.5  L 40.625 28.5  L 40.625 37.2083333333333  C 40.625 37.4227430555556  40.5476888020833 37.6082899305556  40.39306640625 37.7649739583333  C 40.2384440104167 37.9216579861111  40.0553385416667 38  39.84375 38  L 35.15625 38  C 34.9446614583333 38  34.7615559895833 37.9216579861111  34.60693359375 37.7649739583333  C 34.4523111979167 37.6082899305556  34.375 37.4227430555556  34.375 37.2083333333333  L 34.375 28.5  L 25.78125 28.5  C 25.5696614583333 28.5  25.3865559895833 28.4216579861111  25.23193359375 28.2649739583333  C 25.0773111979167 28.1082899305556  25 27.9227430555556  25 27.7083333333333  L 25 22.9583333333333  C 25 22.7439236111111  25.0773111979167 22.5583767361111  25.23193359375 22.4016927083333  C 25.3865559895833 22.2450086805556  25.5696614583333 22.1666666666667  25.78125 22.1666666666667  L 34.375 22.1666666666667  L 34.375 13.4583333333333  C 34.375 13.2439236111111  34.4523111979167 13.0583767361111  34.60693359375 12.9016927083333  C 34.7615559895833 12.7450086805556  34.9446614583333 12.6666666666667  35.15625 12.6666666666667  L 39.84375 12.6666666666667  C 40.0553385416667 12.6666666666667  40.2384440104167 12.7450086805556  40.39306640625 12.9016927083333  C 40.5476888020833 13.0583767361111  40.625 13.2439236111111  40.625 13.4583333333333  Z M 22.65625 22.9583333333333  L 22.65625 27.7083333333333  C 22.65625 28.5659722222222  22.9654947916667 29.3081597222222  23.583984375 29.9348958333333  C 24.2024739583333 30.5616319444444  24.9348958333333 30.875  25.78125 30.875  L 32.03125 30.875  L 32.03125 36.7630208333333  C 30.9244791666667 37.5876736111111  29.5328776041667 38  27.8564453125 38  L 6.5185546875 38  C 4.54915364583333 38  2.97037760416667 37.4309895833333  1.7822265625 36.29296875  C 0.594075520833333 35.1549479166667  0 33.5881076388889  0 31.5924479166667  C 0 30.7183159722222  0.0284830729166667 29.8648003472222  0.08544921875 29.0319010416667  C 0.142415364583333 28.1990017361111  0.25634765625 27.3001302083333  0.42724609375 26.3352864583333  C 0.59814453125 25.3704427083333  0.813802083333333 24.4756944444444  1.07421875 23.6510416666667  C 1.33463541666667 22.8263888888889  1.6845703125 22.0223524305556  2.1240234375 21.2389322916667  C 2.5634765625 20.4555121527778  3.06803385416667 19.7875434027778  3.6376953125 19.2350260416667  C 4.20735677083333 18.6825086805556  4.90315755208333 18.2413194444444  5.72509765625 17.9114583333333  C 6.54703776041667 17.5815972222222  7.45442708333333 17.4166666666667  8.447265625 17.4166666666667  C 8.75651041666667 17.4166666666667  9.07389322916667 17.5568576388889  9.3994140625 17.8372395833333  C 10.6852213541667 18.8433159722222  11.9425455729167 19.5978732638889  13.17138671875 20.1009114583333  C 14.4002278645833 20.6039496527778  15.7389322916667 20.85546875  17.1875 20.85546875  C 18.6360677083333 20.85546875  19.9747721354167 20.6039496527778  21.20361328125 20.1009114583333  C 22.4324544270833 19.5978732638889  23.6897786458333 18.8433159722222  24.9755859375 17.8372395833333  C 25.3011067708333 17.5568576388889  25.6184895833333 17.4166666666667  25.927734375 17.4166666666667  C 28.076171875 17.4166666666667  29.8421223958333 18.2083333333333  31.2255859375 19.7916666666667  L 25.78125 19.7916666666667  C 24.9348958333333 19.7916666666667  24.2024739583333 20.1050347222222  23.583984375 20.7317708333333  C 22.9654947916667 21.3585069444444  22.65625 22.1006944444444  22.65625 22.9583333333333  Z " fill-rule="nonzero" fill="#ffffff" stroke="none" transform="matrix(1 0 0 1 998 273 )" />
  </g>
</svg>