<?xml version="1.0" encoding="utf-8"?>
<svg version="1.1" xmlns:xlink="http://www.w3.org/1999/xlink" width="60px" height="28px" xmlns="http://www.w3.org/2000/svg">
  <defs>
    <mask fill="white" id="clip20">
      <path d="M 60 24  L 60 4  C 60 1.76  58.35 0  56.25 0  L 0 0  L 0 28  L 56.25 28  C 58.35 28  60 26.24  60 24  Z " fill-rule="evenodd" />
    </mask>
  </defs>
  <g transform="matrix(1 0 0 1 -930 -489 )">
    <path d="M 60 24  L 60 4  C 60 1.76  58.35 0  56.25 0  L 0 0  L 0 28  L 56.25 28  C 58.35 28  60 26.24  60 24  Z " fill-rule="nonzero" fill="#ffffff" stroke="none" transform="matrix(1 0 0 1 930 489 )" />
    <path d="M 60 24  L 60 4  C 60 1.76  58.35 0  56.25 0  L 0 0  L 0 28  L 56.25 28  C 58.35 28  60 26.24  60 24  Z " stroke-width="2" stroke="#d9d9d9" fill="none" transform="matrix(1 0 0 1 930 489 )" mask="url(#clip20)" />
  </g>
</svg>