<?xml version="1.0" encoding="utf-8"?>
<svg version="1.1" xmlns:xlink="http://www.w3.org/1999/xlink" width="24px" height="24px" xmlns="http://www.w3.org/2000/svg">
  <g transform="matrix(1 0 0 1 -562 -312 )">
    <path d="M 22.6473214285714 7.24090909090909  C 23.5491071428571 8.89545454545454  24 10.6681818181818  24 12.5590909090909  C 24 13.0681818181818  23.96875 13.5409090909091  23.90625 14  L 8.49107142857143 14  C 8.49107142857143 15.3045454545455  8.97991071428572 16.4159090909091  9.95758928571428 17.3113636363636  C 10.9352678571429 18.2068181818182  12.0848214285714 18.6545454545455  13.40625 18.6545454545455  C 14.2901785714286 18.6545454545455  15.1183035714286 18.4431818181818  15.890625 18.0204545454545  C 16.6629464285714 17.5977272727273  17.2723214285714 17.0045454545455  17.71875 16.2409090909091  L 23.3839285714286 16.2409090909091  C 22.8839285714286 17.6863636363636  22.1227678571429 18.9636363636364  21.1004464285714 20.0727272727273  C 20.078125 21.1818181818182  18.8839285714286 22.0386363636364  17.5178571428571 22.6431818181818  C 16.1517857142857 23.2477272727273  14.71875 23.55  13.21875 23.55  C 11.5491071428571 23.55  9.95982142857143 23.1727272727273  8.45089285714286 22.4181818181818  C 6.41517857142857 23.4727272727273  4.65625 24  3.17410714285714 24  C 1.05803571428571 24  0 22.8045454545455  0 20.4136363636364  C 0 19.3681818181818  0.200892857142857 18.1181818181818  0.602678571428571 16.6636363636364  C 0.754464285714286 16.1181818181818  1.24107142857143 15.0772727272727  2.0625 13.5409090909091  C 3.83928571428571 10.2681818181818  5.95982142857143 7.51363636363636  8.42410714285714 5.27727272727273  C 6.78125 5.99545454545454  4.875 7.60454545454545  2.70535714285714 10.1045454545455  C 3.26785714285714 7.61363636363636  4.53348214285714 5.57045454545454  6.50223214285714 3.975  C 8.47098214285714 2.37954545454545  10.7098214285714 1.58181818181818  13.21875 1.58181818181818  C 13.4866071428571 1.58181818181818  13.6875 1.58636363636364  13.8214285714286 1.59545454545455  C 16.0982142857143 0.531818181818183  18.03125 0  19.6205357142857 0  C 20.1919642857143 0  20.7098214285714 0.0590909090909086  21.1741071428571 0.177272727272729  C 21.6383928571429 0.295454545454543  22.0602678571429 0.479545454545453  22.4397321428571 0.729545454545455  C 22.8191964285714 0.979545454545454  23.1160714285714 1.32727272727273  23.3303571428571 1.77272727272727  C 23.5446428571429 2.21818181818182  23.6517857142857 2.74090909090909  23.6517857142857 3.34090909090909  C 23.6517857142857 4.39545454545454  23.3169642857143 5.69545454545454  22.6473214285714 7.24090909090909  Z M 22.3794642857143 6.77727272727273  C 22.8348214285714 5.55  23.0625 4.56818181818182  23.0625 3.83181818181818  C 23.0625 3.07727272727273  22.8258928571429 2.47727272727273  22.3526785714286 2.03181818181818  C 21.8794642857143 1.58636363636364  21.2678571428571 1.36363636363636  20.5178571428571 1.36363636363636  C 19.5535714285714 1.36363636363636  18.4196428571429 1.68181818181818  17.1160714285714 2.31818181818182  C 18.1964285714286 2.74545454545455  19.1897321428571 3.34318181818182  20.0959821428571 4.11136363636364  C 21.0022321428571 4.87954545454545  21.7633928571429 5.76818181818182  22.3794642857143 6.77727272727273  Z M 3.02678571428571 16.1727272727273  C 2.15178571428571 18.0363636363636  1.71428571428571 19.5454545454545  1.71428571428571 20.7  C 1.71428571428571 21.4818181818182  1.93080357142857 22.0840909090909  2.36383928571429 22.5068181818182  C 2.796875 22.9295454545455  3.39732142857143 23.1409090909091  4.16517857142857 23.1409090909091  C 5.19196428571429 23.1409090909091  6.37946428571429 22.7636363636364  7.72767857142857 22.0090909090909  C 6.63839285714286 21.3545454545455  5.68526785714286 20.5227272727273  4.86830357142857 19.5136363636364  C 4.05133928571429 18.5045454545455  3.4375 17.3909090909091  3.02678571428571 16.1727272727273  Z M 9.97098214285714 7.74545454545455  C 9.01116071428572 8.60909090909091  8.50892857142857 9.68636363636364  8.46428571428572 10.9772727272727  L 18.2142857142857 10.9772727272727  C 18.1696428571429 9.68636363636364  17.6651785714286 8.60909090909091  16.7008928571429 7.74545454545455  C 15.7366071428571 6.88181818181818  14.6160714285714 6.45  13.3392857142857 6.45  C 12.0535714285714 6.45  10.9308035714286 6.88181818181818  9.97098214285714 7.74545454545455  Z " fill-rule="nonzero" fill="#1890ff" stroke="none" transform="matrix(1 0 0 1 562 312 )" />
  </g>
</svg>