<?xml version="1.0" encoding="utf-8"?>
<svg version="1.1" xmlns:xlink="http://www.w3.org/1999/xlink" width="24px" height="24px" xmlns="http://www.w3.org/2000/svg">
  <g transform="matrix(1 0 0 1 -940 -414 )">
    <path d="M 0 17.0357142857143  C 0 14.5803571428571  1.14806378132118 12.5  3.44419134396355 10.7946428571429  C 3.37129840546697 10.625  3.33485193621868 10.3928571428571  3.33485193621868 10.0982142857143  C 3.33485193621868 9.91964285714286  3.38496583143508 9.70089285714285  3.48519362186788 9.44196428571429  C 3.58542141230068 9.18303571428571  3.69476082004556 8.98214285714286  3.81321184510251 8.83928571428571  C 3.80410022779043 8.64285714285714  3.83826879271071 8.40625  3.91571753986333 8.12946428571429  C 3.99316628701595 7.85267857142857  4.09567198177677 7.66071428571429  4.22323462414579 7.55357142857143  C 4.22323462414579 6.3125  4.64464692482916 5.02455357142857  5.4874715261959 3.68973214285714  C 6.33029612756264 2.35491071428571  7.32118451025057 1.41964285714286  8.46013667425968 0.88392857142857  C 9.72665148063781 0.294642857142857  11.2027334851936 0  12.8883826879271 0  C 14.1002277904328 0  15.3120728929385 0.245535714285717  16.5239179954442 0.736607142857143  C 16.9703872437358 0.924107142857143  17.380410022779 1.13839285714286  17.753986332574 1.37946428571429  C 18.127562642369 1.62053571428571  18.4510250569476 1.87053571428571  18.7243735763098 2.12946428571429  C 18.997722095672 2.38839285714286  19.248291571754 2.69196428571429  19.4760820045558 3.04017857142857  C 19.7038724373576 3.38839285714286  19.8952164009112 3.71875  20.0501138952164 4.03125  C 20.2050113895216 4.34375  20.3530751708428 4.72098214285714  20.49430523918 5.16294642857143  C 20.6355353075171 5.60491071428571  20.751708428246 6.00446428571428  20.8428246013667 6.36160714285714  C 20.9339407744875 6.71875  21.0341685649203 7.15625  21.1435079726651 7.67410714285714  L 21.1571753986333 7.74107142857143  C 21.6583143507973 8.48214285714285  21.9088838268793 9.15178571428572  21.9088838268793 9.75  C 21.9088838268793 9.875  21.8678815489749 10.0535714285714  21.7858769931663 10.2857142857143  C 21.7038724373576 10.5178571428571  21.6628701594533 10.6875  21.6628701594533 10.7946428571429  C 21.6628701594533 10.8035714285714  21.6697038724374 10.8191964285714  21.6833712984055 10.8415178571429  C 21.6970387243736 10.8638392857143  21.7129840546697 10.8861607142857  21.7312072892938 10.9084821428571  C 21.749430523918 10.9308035714286  21.7585421412301 10.9464285714286  21.7585421412301 10.9553571428571  C 22.4601366742597 11.9732142857143  23.0091116173121 12.9308035714286  23.4054669703872 13.828125  C 23.8018223234624 14.7254464285714  24 15.65625  24 16.6205357142857  C 24 17.0044642857143  23.9111617312073 17.4508928571429  23.7334851936219 17.9598214285714  C 23.5558086560364 18.46875  23.3029612756264 18.7232142857143  22.9749430523918 18.7232142857143  C 22.8929384965831 18.7232142857143  22.8041002277904 18.6897321428571  22.7084282460137 18.6227678571429  C 22.6127562642369 18.5558035714286  22.5261958997722 18.4776785714286  22.4487471526196 18.3883928571429  C 22.371298405467 18.2991071428571  22.2847380410023 18.1830357142857  22.1890660592255 18.0401785714286  C 22.0933940774487 17.8973214285714  22.0205011389522 17.7790178571429  21.9703872437358 17.6852678571429  C 21.9202733485194 17.5915178571429  21.8587699316629 17.4754464285714  21.7858769931663 17.3370535714286  C 21.7129840546697 17.1986607142857  21.6719817767654 17.1205357142857  21.6628701594533 17.1026785714286  C 21.6537585421412 17.09375  21.6400911161731 17.0892857142857  21.621867881549 17.0892857142857  L 21.5535307517084 17.1428571428571  C 21.0159453302961 18.5178571428571  20.4145785876993 19.5133928571429  19.749430523918 20.1294642857143  C 19.9316628701595 20.3080357142857  20.2118451025057 20.4799107142857  20.5899772209567 20.6450892857143  C 20.9681093394078 20.8102678571429  21.2824601366743 20.9955357142857  21.5330296127563 21.2008928571429  C 21.7835990888383 21.40625  21.9453302961276 21.6964285714286  22.0182232346241 22.0714285714286  C 22 22.1071428571429  21.9817767653759 22.1785714285714  21.9635535307517 22.2857142857143  C 21.9453302961276 22.3928571428571  21.9134396355353 22.4732142857143  21.8678815489749 22.5267857142857  C 21.2847380410023 23.3928571428571  19.9088838268793 23.8258928571429  17.7403189066059 23.8258928571429  C 17.2574031890661 23.8258928571429  16.753986332574 23.7857142857143  16.2300683371298 23.7053571428571  C 15.7061503416856 23.625  15.2596810933941 23.5357142857143  14.8906605922551 23.4375  C 14.5216400911162 23.3392857142857  14.0455580865604 23.2053571428571  13.4624145785877 23.0357142857143  C 13.3257403189066 22.9910714285714  13.2209567198178 22.9598214285714  13.1480637813212 22.9419642857143  C 13.0205011389522 22.90625  12.8109339407745 22.8861607142857  12.5193621867882 22.8816964285714  C 12.2277904328018 22.8772321428571  12.0455580865604 22.8705357142857  11.9726651480638 22.8616071428571  C 11.5990888382688 23.2633928571429  11.0182232346241 23.5535714285714  10.2300683371298 23.7321428571429  C 9.44191343963554 23.9107142857143  8.6742596810934 24  7.92710706150342 24  C 7.60820045558087 24  7.29384965831435 23.9933035714286  6.98405466970387 23.9799107142857  C 6.67425968109339 23.9665178571429  6.250569476082 23.9263392857143  5.7129840546697 23.859375  C 5.1753986332574 23.7924107142857  4.71526195899772 23.7008928571429  4.33257403189066 23.5848214285714  C 3.9498861047836 23.46875  3.61047835990888 23.2901785714286  3.31435079726651 23.0491071428571  C 3.01822323462415 22.8080357142857  2.87015945330296 22.5223214285714  2.87015945330296 22.1919642857143  C 2.87015945330296 21.8348214285714  2.91571753986333 21.5691964285714  3.00683371298406 21.3950892857143  C 3.09794988610478 21.2209821428571  3.28473804100228 21.0044642857143  3.56719817767654 20.7455357142857  C 3.66742596810934 20.7276785714286  3.85193621867882 20.6696428571429  4.12072892938497 20.5714285714286  C 4.38952164009112 20.4732142857143  4.61503416856492 20.4196428571429  4.79726651480638 20.4107142857143  C 4.83371298405467 20.4107142857143  4.89749430523918 20.4017857142857  4.98861047835991 20.3839285714286  C 5.00683371298406 20.3660714285714  5.01594533029613 20.3482142857143  5.01594533029613 20.3303571428571  L 4.98861047835991 20.2901785714286  C 4.55125284738041 20.1919642857143  4.05922551252847 19.7209821428571  3.5125284738041 18.8772321428571  C 2.96583143507973 18.0334821428571  2.63325740318907 17.3348214285714  2.51480637813212 16.78125  L 2.44646924829157 16.7410714285714  C 2.41002277904328 16.7410714285714  2.35535307517084 16.8303571428571  2.28246013667426 17.0089285714286  C 2.11845102505695 17.375  1.87015945330296 17.7075892857143  1.5375854214123 18.0066964285714  C 1.20501138952164 18.3058035714286  0.851936218678816 18.4732142857143  0.478359908883827 18.5089285714286  L 0.464692482915718 18.5089285714286  C 0.428246013667426 18.5089285714286  0.400911161731207 18.4888392857143  0.382687927107062 18.4486607142857  C 0.364464692482916 18.4084821428571  0.341685649202733 18.3839285714286  0.314350797266515 18.375  C 0.104783599088838 17.8928571428571  0 17.4464285714286  0 17.0357142857143  Z " fill-rule="nonzero" fill="#1890ff" stroke="none" transform="matrix(1 0 0 1 940 414 )" />
  </g>
</svg>