<?xml version="1.0" encoding="utf-8"?>
<svg version="1.1" xmlns:xlink="http://www.w3.org/1999/xlink" width="24px" height="24px" xmlns="http://www.w3.org/2000/svg">
  <g transform="matrix(1 0 0 1 -562 -414 )">
    <path d="M 14.828125 14.828125  C 15.609375 14.046875  16 13.1041666666667  16 12  C 16 10.8958333333333  15.609375 9.953125  14.828125 9.171875  C 14.046875 8.390625  13.1041666666667 8  12 8  C 10.8958333333333 8  9.953125 8.390625  9.171875 9.171875  C 8.390625 9.953125  8 10.8958333333333  8 12  C 8 13.1041666666667  8.390625 14.046875  9.171875 14.828125  C 9.953125 15.609375  10.8958333333333 16  12 16  C 13.1041666666667 16  14.046875 15.609375  14.828125 14.828125  Z M 23.875 9.9296875  C 23.9583333333333 10.0390625  24 10.1614583333333  24 10.296875  L 24 13.765625  C 24 13.890625  23.9583333333333 14.0104166666667  23.875 14.125  C 23.7916666666667 14.2395833333333  23.6875 14.3072916666667  23.5625 14.328125  L 20.671875 14.765625  C 20.4739583333333 15.328125  20.2708333333333 15.8020833333333  20.0625 16.1875  C 20.4270833333333 16.7083333333333  20.984375 17.4270833333333  21.734375 18.34375  C 21.8385416666667 18.46875  21.890625 18.5989583333333  21.890625 18.734375  C 21.890625 18.8697916666667  21.84375 18.9895833333333  21.75 19.09375  C 21.46875 19.4791666666667  20.953125 20.0416666666667  20.203125 20.78125  C 19.453125 21.5208333333333  18.9635416666667 21.890625  18.734375 21.890625  C 18.609375 21.890625  18.4739583333333 21.84375  18.328125 21.75  L 16.171875 20.0625  C 15.7135416666667 20.3020833333333  15.2395833333333 20.5  14.75 20.65625  C 14.5833333333333 22.0729166666667  14.4322916666667 23.0416666666667  14.296875 23.5625  C 14.2239583333333 23.8541666666667  14.0364583333333 24  13.734375 24  L 10.265625 24  C 10.1197916666667 24  9.9921875 23.9557291666667  9.8828125 23.8671875  C 9.7734375 23.7786458333333  9.71354166666667 23.6666666666667  9.703125 23.53125  L 9.265625 20.65625  C 8.75520833333333 20.4895833333333  8.28645833333333 20.296875  7.859375 20.078125  L 5.65625 21.75  C 5.55208333333333 21.84375  5.421875 21.890625  5.265625 21.890625  C 5.11979166666667 21.890625  4.98958333333333 21.8333333333333  4.875 21.71875  C 3.5625 20.53125  2.703125 19.65625  2.296875 19.09375  C 2.22395833333333 18.9895833333333  2.1875 18.8697916666667  2.1875 18.734375  C 2.1875 18.609375  2.22916666666667 18.4895833333333  2.3125 18.375  C 2.46875 18.15625  2.734375 17.8098958333333  3.109375 17.3359375  C 3.484375 16.8619791666667  3.765625 16.4947916666667  3.953125 16.234375  C 3.671875 15.7135416666667  3.45833333333333 15.1979166666667  3.3125 14.6875  L 0.453125 14.265625  C 0.317708333333333 14.2447916666667  0.208333333333333 14.1796875  0.125 14.0703125  C 0.0416666666666667 13.9609375  0 13.8385416666667  0 13.703125  L 0 10.234375  C 0 10.109375  0.0416666666666667 9.98958333333333  0.125 9.875  C 0.208333333333333 9.76041666666667  0.307291666666667 9.69270833333333  0.421875 9.671875  L 3.328125 9.234375  C 3.47395833333333 8.75520833333333  3.67708333333333 8.27604166666667  3.9375 7.796875  C 3.52083333333333 7.203125  2.96354166666667 6.484375  2.265625 5.640625  C 2.16145833333333 5.515625  2.109375 5.390625  2.109375 5.265625  C 2.109375 5.16145833333333  2.15625 5.04166666666666  2.25 4.90625  C 2.52083333333333 4.53125  3.03385416666667 3.97135416666666  3.7890625 3.2265625  C 4.54427083333333 2.48177083333333  5.03645833333333 2.109375  5.265625 2.109375  C 5.40104166666667 2.109375  5.53645833333333 2.16145833333333  5.671875 2.265625  L 7.828125 3.9375  C 8.28645833333333 3.69791666666667  8.76041666666667 3.5  9.25 3.34375  C 9.41666666666667 1.92708333333333  9.56770833333333 0.958333333333331  9.703125 0.437499999999999  C 9.77604166666667 0.145833333333332  9.96354166666667 0  10.265625 0  L 13.734375 0  C 13.8802083333333 0  14.0078125 0.0442708333333313  14.1171875 0.132812499999999  C 14.2265625 0.221354166666664  14.2864583333333 0.333333333333332  14.296875 0.46875  L 14.734375 3.34375  C 15.2447916666667 3.51041666666667  15.7135416666667 3.703125  16.140625 3.921875  L 18.359375 2.25  C 18.453125 2.15625  18.578125 2.109375  18.734375 2.109375  C 18.8697916666667 2.109375  19 2.16145833333333  19.125 2.265625  C 20.46875 3.50520833333333  21.328125 4.390625  21.703125 4.921875  C 21.7760416666667 5.00520833333333  21.8125 5.11979166666666  21.8125 5.265625  C 21.8125 5.390625  21.7708333333333 5.51041666666666  21.6875 5.625  C 21.53125 5.84375  21.265625 6.19010416666666  20.890625 6.6640625  C 20.515625 7.13802083333333  20.234375 7.50520833333333  20.046875 7.765625  C 20.3177083333333 8.28645833333333  20.53125 8.796875  20.6875 9.296875  L 23.546875 9.734375  C 23.6822916666667 9.75520833333333  23.7916666666667 9.8203125  23.875 9.9296875  Z " fill-rule="nonzero" fill="#1890ff" stroke="none" transform="matrix(1 0 0 1 562 414 )" />
  </g>
</svg>