<?xml version="1.0" encoding="utf-8"?>
<svg version="1.1" xmlns:xlink="http://www.w3.org/1999/xlink" width="20px" height="24px" xmlns="http://www.w3.org/2000/svg">
  <g transform="matrix(1 0 0 1 -376 -412 )">
    <path d="M 17.7315147164393 15.7067307692308  C 18.391959798995 16.6586538461538  19.1481215601819 17.2644230769231  20 17.5240384615385  C 19.6267049533381 18.7259615384615  19.0380473797559 19.9278846153846  18.2340272792534 21.1298076923077  C 16.9992821249103 23.0144230769231  15.7693228044987 23.9567307692308  14.5441493180187 23.9567307692308  C 14.0751375927255 23.9567307692308  13.4051208423068 23.8028846153846  12.5340990667624 23.4951923076923  C 11.7109356305336 23.1875  10.9882747068677 23.0336538461538  10.3661162957645 23.0336538461538  C 9.7822445561139 23.0336538461538  9.10265613783202 23.1923076923077  8.32735104091888 23.5096153846154  C 7.55204594400574 23.8365384615385  6.92031586503948 24  6.4321608040201 24  C 4.97726728882508 24  3.53673127542474 22.7548076923077  2.1105527638191 20.2644230769231  C 0.703517587939698 17.7548076923077  0 15.3365384615385  0 13.0096153846154  C 0 10.8173076923077  0.540799234266571 9.01923076923077  1.62239770279971 7.61538461538462  C 2.70399617133285 6.23076923076923  4.06317300789663 5.53846153846154  5.69992821249103 5.53846153846154  C 6.38908829863604 5.53846153846154  7.23618090452261 5.68269230769231  8.24120603015075 5.97115384615384  C 9.23665948791577 6.25961538461539  9.89710457047141 6.40384615384616  10.2225412778177 6.40384615384616  C 10.6532663316583 6.40384615384616  11.3376405838717 6.24038461538461  12.275664034458 5.91346153846154  C 13.2519741564968 5.58653846153846  14.0799234266571 5.42307692307692  14.759511844939 5.42307692307692  C 15.8985403206509 5.42307692307692  16.9179229480737 5.73557692307692  17.8176597272075 6.36057692307692  C 18.31538645609 6.70673076923077  18.8131131849725 7.1875  19.310839913855 7.80288461538462  C 18.5546781526681 8.44711538461538  18.00909308447 9.01442307692308  17.6740847092606 9.50480769230769  C 17.0519262981575 10.4086538461538  16.7408470926059 11.4038461538461  16.7408470926059 12.4903846153846  C 16.7408470926059 13.6826923076923  17.0710696338837 14.7548076923077  17.7315147164393 15.7067307692308  Z M 14.5944005743001 0.461538461538463  C 14.5991864082316 0.51923076923077  14.6015793251974 0.567307692307692  14.6015793251974 0.60576923076923  C 14.6015793251974 1.19230769230769  14.4627901411821 1.84615384615384  14.1852117731515 2.56730769230769  C 13.8980617372577 3.28846153846154  13.4529791816224 3.95192307692308  12.8499641062455 4.55769230769231  C 12.3330940416368 5.07692307692308  11.816223977028 5.42307692307692  11.2993539124192 5.59615384615384  C 10.9452022014836 5.70192307692308  10.4474754726011 5.78365384615384  9.80617372577172 5.84134615384616  C 9.83488872936109 4.40865384615384  10.208183776023 3.17307692307692  10.9260588657574 2.13461538461539  C 11.6343622876286 1.10576923076923  12.8308207705193 0.394230769230769  14.5154343144293 0  C 14.5250059822924 0.0288461538461551  14.5369705671213 0.0817307692307683  14.551328068916 0.158653846153845  C 14.5656855707107 0.235576923076922  14.5776501555396 0.288461538461537  14.5872218234027 0.317307692307693  C 14.5872218234027 0.355769230769228  14.5896147403685 0.403846153846155  14.5944005743001 0.461538461538463  Z " fill-rule="nonzero" fill="#1890ff" stroke="none" transform="matrix(1 0 0 1 376 412 )" />
  </g>
</svg>