<?xml version="1.0" encoding="utf-8"?>
<svg version="1.1" xmlns:xlink="http://www.w3.org/1999/xlink" width="20px" height="24px" xmlns="http://www.w3.org/2000/svg">
  <g transform="matrix(1 0 0 1 -942 -313 )">
    <path d="M 6.61931818181818 4.95432692307692  C 6.72348484848485 5.06490384615384  6.85132575757576 5.12019230769231  7.00284090909091 5.12019230769231  C 7.15435606060606 5.12019230769231  7.28456439393939 5.06490384615384  7.39346590909091 4.95432692307692  C 7.50236742424243 4.84375  7.55681818181818 4.71153846153846  7.55681818181818 4.55769230769231  C 7.55681818181818 4.40384615384615  7.50236742424243 4.27163461538461  7.39346590909091 4.16105769230769  C 7.28456439393939 4.05048076923077  7.15435606060606 3.99519230769231  7.00284090909091 3.99519230769231  C 6.85132575757576 3.99519230769231  6.72348484848485 4.05048076923077  6.61931818181818 4.16105769230769  C 6.51515151515151 4.27163461538461  6.46306818181818 4.40384615384615  6.46306818181818 4.55769230769231  C 6.46306818181818 4.71153846153846  6.51515151515151 4.84375  6.61931818181818 4.95432692307692  Z M 12.6065340909091 4.95432692307692  C 12.7154356060606 5.06490384615384  12.8456439393939 5.12019230769231  12.9971590909091 5.12019230769231  C 13.1486742424242 5.12019230769231  13.2765151515152 5.06490384615384  13.3806818181818 4.95432692307692  C 13.4848484848485 4.84375  13.5369318181818 4.71153846153846  13.5369318181818 4.55769230769231  C 13.5369318181818 4.40384615384615  13.4848484848485 4.27163461538461  13.3806818181818 4.16105769230769  C 13.2765151515152 4.05048076923077  13.1486742424242 3.99519230769231  12.9971590909091 3.99519230769231  C 12.8456439393939 3.99519230769231  12.7154356060606 4.05048076923077  12.6065340909091 4.16105769230769  C 12.4976325757576 4.27163461538461  12.4431818181818 4.40384615384615  12.4431818181818 4.55769230769231  C 12.4431818181818 4.71153846153846  12.4976325757576 4.84375  12.6065340909091 4.95432692307692  Z M 0.426136363636364 8.20673076923077  C 0.710227272727273 7.91826923076923  1.05587121212121 7.77403846153846  1.46306818181818 7.77403846153846  C 1.86079545454545 7.77403846153846  2.20170454545455 7.91826923076923  2.48579545454545 8.20673076923077  C 2.76988636363636 8.49519230769231  2.91193181818182 8.84134615384616  2.91193181818182 9.24519230769231  L 2.91193181818182 15.4471153846154  C 2.91193181818182 15.8605769230769  2.77225378787879 16.2115384615385  2.49289772727273 16.5  C 2.21354166666667 16.7884615384615  1.87026515151515 16.9326923076923  1.46306818181818 16.9326923076923  C 1.05587121212121 16.9326923076923  0.710227272727273 16.7884615384615  0.426136363636364 16.5  C 0.142045454545455 16.2115384615385  0 15.8605769230769  0 15.4471153846154  L 0 9.24519230769231  C 0 8.84134615384616  0.142045454545455 8.49519230769231  0.426136363636364 8.20673076923077  Z M 3.48011363636364 8  L 16.5198863636364 8  L 16.5198863636364 17.6538461538462  C 16.5198863636364 18.0961538461538  16.3683712121212 18.4711538461538  16.0653409090909 18.7788461538462  C 15.7623106060606 19.0865384615385  15.3977272727273 19.2403846153846  14.9715909090909 19.2403846153846  L 13.90625 19.2403846153846  L 13.90625 22.5144230769231  C 13.90625 22.9278846153846  13.7642045454545 23.2788461538462  13.4801136363636 23.5673076923077  C 13.1960227272727 23.8557692307692  12.8503787878788 24  12.4431818181818 24  C 12.0359848484848 24  11.6903409090909 23.8557692307692  11.40625 23.5673076923077  C 11.1221590909091 23.2788461538462  10.9801136363636 22.9278846153846  10.9801136363636 22.5144230769231  L 10.9801136363636 19.2403846153846  L 9.01988636363636 19.2403846153846  L 9.01988636363636 22.5144230769231  C 9.01988636363636 22.9278846153846  8.87784090909091 23.2788461538462  8.59375 23.5673076923077  C 8.30965909090909 23.8557692307692  7.96401515151515 24  7.55681818181818 24  C 7.15909090909091 24  6.81818181818182 23.8557692307692  6.53409090909091 23.5673076923077  C 6.25 23.2788461538462  6.10795454545455 22.9278846153846  6.10795454545455 22.5144230769231  L 6.09375 19.2403846153846  L 5.04261363636364 19.2403846153846  C 4.60700757575758 19.2403846153846  4.23768939393939 19.0865384615385  3.93465909090909 18.7788461538462  C 3.63162878787879 18.4711538461538  3.48011363636364 18.0961538461538  3.48011363636364 17.6538461538462  L 3.48011363636364 8  Z M 14.2329545454545 0.317307692307693  L 13.2244318181818 2.20673076923077  C 14.2376893939394 2.73557692307692  15.0473484848485 3.47355769230769  15.6534090909091 4.42067307692308  C 16.2594696969697 5.36778846153846  16.5625 6.40384615384616  16.5625 8  L 3.42329545454545 8  C 3.42329545454545 6.40384615384616  3.72632575757576 5.36778846153846  4.33238636363636 4.42067307692308  C 4.93844696969697 3.47355769230769  5.75284090909091 2.73557692307692  6.77556818181818 2.20673076923077  L 5.76704545454545 0.317307692307693  C 5.70075757575758 0.192307692307692  5.72443181818182 0.0961538461538431  5.83806818181818 0.0288461538461551  C 5.96117424242424 -0.0288461538461551  6.05587121212121 0  6.12215909090909 0.115384615384615  L 7.14488636363636 2.01923076923077  C 8.04450757575758 1.61538461538461  8.99621212121212 1.41346153846154  10 1.41346153846154  C 11.0037878787879 1.41346153846154  11.9554924242424 1.61538461538461  12.8551136363636 2.01923076923077  L 13.8778409090909 0.115384615384615  C 13.9441287878788 0  14.0388257575758 -0.0288461538461551  14.1619318181818 0.0288461538461551  C 14.2755681818182 0.0961538461538431  14.2992424242424 0.192307692307692  14.2329545454545 0.317307692307693  Z M 19.5738636363636 8.19951923076923  C 19.8579545454545 8.48317307692308  20 8.83173076923077  20 9.24519230769231  L 20 15.4471153846154  C 20 15.8605769230769  19.8579545454545 16.2115384615385  19.5738636363636 16.5  C 19.2897727272727 16.7884615384615  18.9441287878788 16.9326923076923  18.5369318181818 16.9326923076923  C 18.1392045454545 16.9326923076923  17.7982954545455 16.7884615384615  17.5142045454545 16.5  C 17.2301136363636 16.2115384615385  17.0880681818182 15.8605769230769  17.0880681818182 15.4471153846154  L 17.0880681818182 9.24519230769231  C 17.0880681818182 8.83173076923077  17.2301136363636 8.48317307692308  17.5142045454545 8.19951923076923  C 17.7982954545455 7.91586538461538  18.1392045454545 7.77403846153846  18.5369318181818 7.77403846153846  C 18.9441287878788 7.77403846153846  19.2897727272727 7.91586538461538  19.5738636363636 8.19951923076923  Z " fill-rule="nonzero" fill="#1890ff" stroke="none" transform="matrix(1 0 0 1 942 313 )" />
  </g>
</svg>