<?xml version="1.0" encoding="utf-8"?>
<svg version="1.1" xmlns:xlink="http://www.w3.org/1999/xlink" width="24px" height="17px" xmlns="http://www.w3.org/2000/svg">
  <g transform="matrix(1 0 0 1 -752 -316 )">
    <path d="M 15.3683297180043 14.1239445114596  C 15.7015184381779 14.4554684358665  15.8681127982646 14.8536389223965  15.8681127982646 15.3184559710495  C 15.8681127982646 15.7832730197025  15.7015184381779 16.1797346200241  15.3683297180043 16.5078407720145  C 15.0351409978308 16.8359469240048  14.6325379609544 17  14.1605206073753 17  C 13.6885032537961 17  13.2841648590022 16.8359469240048  12.9475054229935 16.5078407720145  C 12.6108459869848 16.1797346200241  12.4425162689805 15.7832730197025  12.4425162689805 15.3184559710495  C 12.4425162689805 14.8536389223965  12.6108459869848 14.4554684358665  12.9475054229935 14.1239445114596  C 13.2841648590022 13.7924205870527  13.6885032537961 13.6266586248492  14.1605206073753 13.6266586248492  C 14.6325379609544 13.6266586248492  15.0351409978308 13.7924205870527  15.3683297180043 14.1239445114596  Z M 7.5644251626898 14.1239445114596  C 7.90108459869848 14.4554684358665  8.06941431670282 14.8536389223965  8.06941431670282 15.3184559710495  C 8.06941431670282 15.7832730197025  7.90108459869848 16.1797346200241  7.5644251626898 16.5078407720145  C 7.22776572668113 16.8359469240048  6.8234273318872 17  6.35140997830803 17  C 5.87939262472885 17  5.47678958785249 16.8359469240048  5.14360086767896 16.5078407720145  C 4.81041214750542 16.1797346200241  4.64381778741866 15.7832730197025  4.64381778741866 15.3184559710495  C 4.64381778741866 14.8536389223965  4.81041214750542 14.4554684358665  5.14360086767896 14.1239445114596  C 5.47678958785249 13.7924205870527  5.87939262472885 13.6266586248492  6.35140997830803 13.6266586248492  C 6.8234273318872 13.6266586248492  7.22776572668113 13.7924205870527  7.5644251626898 14.1239445114596  Z M 0.380043383947939 0.610072376357056  C 0.216919739696312 0.333232810615199  0.090238611713666 0.129875351829511  0 0  C 0.395661605206074 0.410132689987938  0.779175704989154 0.767289907519099  1.15054229934924 1.07147165259349  C 1.52190889370933 1.37565339766787  1.94186550976139 1.6559107358263  2.41041214750542 1.91224366706876  C 2.87895878524946 2.16857659831122  3.35097613882863 2.38389626055488  3.82646420824295 2.55820265379976  C 4.30195227765727 2.73250904704463  4.87809110629067 2.88801769199839  5.55488069414317 3.02472858866104  C 6.23167028199566 3.16143948532368  6.92581344902386 3.26909931644552  7.63731019522777 3.34770808202654  C 8.34880694143167 3.42631684760756  9.21648590021692 3.48954563731403  10.2403470715835 3.53739445114596  C 11.2642082429501 3.58524326497788  12.319305856833 3.61771210293526  13.4056399132321 3.63480096501809  C 14.4919739696312 3.65188982710092  15.7848156182213 3.66043425814234  17.2841648590022 3.66043425814234  C 18.2490238611714 3.66043425814234  19.0976138828633 3.67752312022517  19.8299349240781 3.71170084439083  C 20.5622559652928 3.74587856855649  21.1904555314534 3.80227181342983  21.7145336225597 3.88088057901086  C 22.2386117136659 3.95948934459188  22.6689804772234 4.05347808604745  23.0056399132321 4.16284680337756  C 23.3422993492408 4.27221552070768  23.5887201735358 4.40721753116204  23.7449023861171 4.56785283474065  C 23.9010845986985 4.72848813831926  23.9843817787419 4.90450341777242  23.9947939262473 5.09589867310012  C 24.0052060737527 5.28729392842782  23.9375271149675 5.50603136308806  23.7917570498915 5.75211097708082  C 23.6459869848156 5.99819059107358  23.4498915401302 6.25965018094089  23.2034707158351 6.53648974668275  C 22.9570498915401 6.81332931242461  22.646420824295 7.12434660233213  22.2715835140998 7.46954161640531  C 21.8967462039046 7.81473663047849  21.4941431670282 8.17189384800965  21.0637744034707 8.54101326899879  C 20.6334056399132 8.91013268998794  20.1509761388286 9.31684760755931  19.6164859002169 9.76115802171291  C 18.3323210412148 10.8343385605147  17.3396963123644 11.6785283474065  16.6386117136659 12.2937273823884  C 16.8399132321041 11.9451145958987  17.1054229934924 11.572577402493  17.4351409978308 11.1761158021713  C 17.7648590021692 10.7796542018496  18.0911062906725 10.4190792119019  18.4138828633406 10.0943908323281  C 18.7366594360087 9.76970245275432  19.0646420824295 9.43305186972256  19.397830802603 9.08443908323281  C 19.7310195227766 8.73582629674306  20.0190889370933 8.42310012062726  20.2620390455531 8.1462605548854  C 20.504989154013 7.86942098914355  20.6924078091106 7.59429030960997  20.824295010846 7.32086851628468  C 20.9561822125813 7.04744672295939  21.0013015184382 6.80820265379976  20.9596529284165 6.60313630880579  C 20.9180043383948 6.39806996381182  20.7600867678959 6.2083835946924  20.4859002169197 6.03407720144753  C 20.2117136659436 5.85977080820265  19.8073752711497 5.71964213912344  19.272885032538 5.61369119420989  C 18.7383947939262 5.50774024929634  18.0303687635575 5.42742259750704  17.1488069414317 5.37273823884198  C 16.2672451193059 5.31805388017692  15.212147505423 5.30096501809409  13.9835140997831 5.32147165259349  C 12.8173535791757 5.33514274225975  11.7275488069414 5.31463610776035  10.7140997830803 5.2599517490953  C 9.70065075921909 5.20526739043023  8.81214750542299 5.12665862484922  8.04859002169198 5.02412545235223  C 7.28503253796096 4.92159227985525  6.57527114967462 4.78146361077604  5.91930585683297 4.6037394451146  C 5.26334056399132 4.42601527945316  4.70976138828633 4.25  4.258568329718 4.07569360675513  C 3.80737527114967 3.90138721351025  3.3822125813449 3.68777643747487  2.98308026030369 3.43486127864898  C 2.58394793926247 3.18194611982308  2.26637744034707 2.95466425412143  2.03036876355748 2.75301568154403  C 1.7943600867679 2.55136710896663  1.55835140997831 2.30699638118215  1.32234273318872 2.01990349819059  C 1.08633405639913 1.73281061519904  0.911062906724512 1.49527543224769  0.796529284164859 1.30729794933655  C 0.681995661605206 1.11932046642541  0.543167028199566 0.886911942098913  0.380043383947939 0.610072376357056  Z " fill-rule="nonzero" fill="#1890ff" stroke="none" transform="matrix(1 0 0 1 752 316 )" />
  </g>
</svg>