<?xml version="1.0" encoding="utf-8"?>
<svg version="1.1" xmlns:xlink="http://www.w3.org/1999/xlink" width="199px" height="113px" xmlns="http://www.w3.org/2000/svg">
  <g transform="matrix(1 0 0 1 -226 -440 )">
    <path d="M 226 440  L 425 440  L 425 553  L 226 553  L 226 440  " fill-rule="nonzero" fill="#cccccc" stroke="none" />
    <path d="M 234 448  L 417 448  L 417 545  L 234 545  L 234 448  " fill-rule="nonzero" fill="#ffffff" stroke="none" />
    <path d="M 337.955 473.9  C 333.209 473.9  329.48 470.171  329.48 465.425  C 329.48 460.679  333.209 456.95  337.955 456.95  C 342.701 456.95  346.43 460.679  346.43 465.425  C 346.43 470.171  342.701 473.9  337.955 473.9  " fill-rule="nonzero" fill="#cccccc" stroke="none" />
    <path d="M 237 542  L 237 491.95  L 281.25 469.2  L 343.2 510.995979899497  L 378.6 482.85  L 414 510.995979899497  L 414 542  L 237 542  " fill-rule="nonzero" fill="#169bd5" stroke="none" />
  </g>
</svg>